<svg xmlns="http://www.w3.org/2000/svg" xmlns:xlink="http://www.w3.org/1999/xlink" width="20" height="25" viewBox="0 0 20 25">
  <defs>
    <style>
      .cls-1 {
        filter: url(#filter);
      }

      .cls-2 {
        fill: #d8effe;
      }

      .cls-10, .cls-11, .cls-12, .cls-13, .cls-14, .cls-15, .cls-16, .cls-17, .cls-18, .cls-2, .cls-3, .cls-4, .cls-5, .cls-6, .cls-7, .cls-8, .cls-9 {
        fill-rule: evenodd;
      }

      .cls-3 {
        fill: #9bd8fd;
      }

      .cls-4 {
        fill: #01aff6;
      }

      .cls-5 {
        fill: #277ac6;
      }

      .cls-6 {
        fill: #12224a;
      }

      .cls-7 {
        fill: #6c3298;
      }

      .cls-8 {
        fill: #cce9fe;
      }

      .cls-9 {
        fill: #ccf4fe;
      }

      .cls-10 {
        fill: #0f8ec2;
      }

      .cls-11 {
        fill: #0d2c67;
      }

      .cls-12 {
        fill: #33104d;
      }

      .cls-13 {
        fill: #5a0040;
      }

      .cls-14 {
        fill: #d4008b;
      }

      .cls-15 {
        fill: #8d0265;
      }

      .cls-16 {
        fill: #e58401;
      }

      .cls-17 {
        fill: #f0b300;
      }

      .cls-18 {
        fill: #fddc00;
      }
    </style>
    <filter id="filter" filterUnits="userSpaceOnUse">
      <feFlood result="flood" flood-color="#fff"/>
      <feComposite result="composite" operator="in" in2="SourceGraphic"/>
      <feBlend result="blend" in2="SourceGraphic"/>
    </filter>
  </defs>
  <g class="cls-1">
    <path class="cls-2" d="M1.925,4.488c0.222-.147.66-0.461,0.851-0.585A0.143,0.143,0,0,1,2.946,3.9c0.2,0.119.694,0.45,0.926,0.6,0.11,0.071.059,0.117,0,.154-0.216.127-.649,0.4-0.875,0.515a0.194,0.194,0,0,1-.24.008c-0.2-.126-0.637-0.386-0.839-0.524C1.835,4.595,1.817,4.559,1.925,4.488Z"/>
    <path id="Shape_1_copy" data-name="Shape 1 copy" class="cls-3" d="M4.55,6.735c0.336-.221.945-0.651,1.232-0.852a0.243,0.243,0,0,1,.327,0c0.311,0.214,1,.639,1.341.872C7.545,6.822,7.584,6.924,7.473,7c-0.307.2-.977,0.56-1.311,0.775a0.31,0.31,0,0,1-.407.014c-0.3-.188-0.887-0.549-1.2-0.757C4.385,6.922,4.332,6.879,4.55,6.735Z"/>
    <path id="Shape_1_copy_2" data-name="Shape 1 copy 2" class="cls-4" d="M7.452,5.341c0.286-.187.713-0.474,0.936-0.632a0.278,0.278,0,0,1,.326-0.049c0.27,0.175.846,0.543,1.119,0.732C9.9,5.437,9.956,5.509,9.8,5.6c-0.268.153-.756,0.441-1.031,0.6a0.3,0.3,0,0,1-.4-0.018C8.125,6.009,7.707,5.752,7.458,5.6,7.3,5.505,7.316,5.43,7.452,5.341Z"/>
    <path class="cls-5" d="M8.43,9.932C8.039,9.689,7.292,9.27,6.878,9.024,6.691,8.912,6.637,8.806,6.841,8.68c0.422-.258,1.219-0.777,1.608-1a0.4,0.4,0,0,1,.4-0.017c0.384,0.21,1.216.7,1.649,0.966,0.162,0.1.246,0.191,0.047,0.31-0.389.234-1.164,0.7-1.567,0.978A0.467,0.467,0,0,1,8.43,9.932Z"/>
    <path id="Rectangle_3_copy_3" data-name="Rectangle 3 copy 3" class="cls-5" d="M10.765,11.76c-0.415-.242-1.124-0.642-1.508-0.883-0.213-.133-0.176-0.231.021-0.357C9.684,10.258,10.4,9.794,10.8,9.572a0.457,0.457,0,0,1,.516-0.012c0.383,0.225,1.112.634,1.53,0.9,0.262,0.164.218,0.274,0.066,0.368-0.389.239-1.092,0.684-1.5,0.936A0.511,0.511,0,0,1,10.765,11.76Z"/>
    <path id="Rectangle_3_copy_4" data-name="Rectangle 3 copy 4" class="cls-6" d="M13.789,10.439c-0.409-.242-1.172-0.706-1.624-0.965-0.221-.126-0.257-0.259-0.007-0.416,0.437-.274,1.194-0.731,1.6-0.981A0.46,0.46,0,0,1,14.3,8.059c0.4,0.235,1.178.7,1.633,0.97,0.2,0.115.261,0.271,0.054,0.4-0.424.253-1.18,0.725-1.608,0.985A0.48,0.48,0,0,1,13.789,10.439Z"/>
    <path id="Rectangle_3_copy_5" data-name="Rectangle 3 copy 5" class="cls-4" d="M16.869,9.173c-0.457-.278-1.294-0.789-1.8-1.1-0.291-.176-0.366-0.3-0.022-0.508,0.516-.31,1.382-0.862,1.829-1.148a0.5,0.5,0,0,1,.588,0c0.478,0.289,1.413.843,1.9,1.16a0.25,0.25,0,0,1,.016.408c-0.484.295-1.369,0.879-1.863,1.17A0.679,0.679,0,0,1,16.869,9.173Z"/>
    <path id="Rectangle_3_copy" data-name="Rectangle 3 copy" class="cls-7" d="M10.875,8.172c-0.335-.219-1-0.59-1.364-0.8-0.16-.092-0.189-0.178,0-0.3,0.357-.231,1.022-0.627,1.352-0.84a0.31,0.31,0,0,1,.4-0.013c0.333,0.187,1,.576,1.373.8,0.209,0.122.172,0.233,0.008,0.331-0.364.217-1,.6-1.324,0.818A0.382,0.382,0,0,1,10.875,8.172Z"/>
    <path id="Rectangle_3_copy_2" data-name="Rectangle 3 copy 2" class="cls-5" d="M13.275,6.6c-0.334-.178-1-0.567-1.345-0.773-0.149-.09-0.139-0.182-0.013-0.251,0.338-.186.976-0.6,1.308-0.8,0.195-.119.186-0.153,0.45,0.015,0.337,0.214.969,0.565,1.294,0.752,0.161,0.093.131,0.171,0,.251-0.326.2-.933,0.59-1.276,0.78A0.356,0.356,0,0,1,13.275,6.6Z"/>
    <path class="cls-2" d="M0,6.928V8.735a0.132,0.132,0,0,0,.074.143C0.336,9.037,1.25,9.56,1.663,9.788c0.163,0.09.2,0.052,0.2-.038V7.988a0.248,0.248,0,0,0-.156-0.234C1.324,7.549.351,7.02,0.073,6.878,0.03,6.856,0,6.872,0,6.928Z"/>
    <path class="cls-8" d="M1.8,10.673c0.351,0.168,1.269.687,1.6,0.874a0.218,0.218,0,0,1,.115.238c0,0.362-.045,1.2-0.045,1.6,0,0.111-.013.208-0.176,0.121-0.366-.195-1.217-0.666-1.547-0.845a0.23,0.23,0,0,1-.127-0.241c0-.372.047-1.262,0.047-1.639C1.663,10.732,1.687,10.619,1.8,10.673Z"/>
    <path id="Rectangle_1_copy" data-name="Rectangle 1 copy" class="cls-9" d="M3.9,8.762c0.334,0.18,1.349.742,1.739,0.957a0.194,0.194,0,0,1,.149.207c0,0.378-.055,1.532-0.055,1.914,0,0.059-.006.118-0.128,0.056-0.367-.188-1.41-0.779-1.761-0.969a0.175,0.175,0,0,1-.11-0.2c0-.4.055-1.558,0.055-1.918C3.789,8.754,3.805,8.712,3.9,8.762Z"/>
    <path id="Rectangle_1_copy_2" data-name="Rectangle 1 copy 2" class="cls-3" d="M3.991,14.353c0.357,0.221,1.093.652,1.4,0.829a0.275,0.275,0,0,1,.131.261c0,0.36-.041,1.168-0.041,1.586,0,0.162-.041.241-0.19,0.155-0.338-.2-1.054-0.621-1.385-0.821a0.324,0.324,0,0,1-.169-0.355c0-.405.041-1.2,0.041-1.573C3.776,14.306,3.786,14.225,3.991,14.353Z"/>
    <path id="Rectangle_1_copy_3" data-name="Rectangle 1 copy 3" class="cls-10" d="M6.056,12.781c0.441,0.252,1.322.752,1.722,0.987a0.318,0.318,0,0,1,.21.329c0,0.43,0,1.413,0,1.877,0,0.172-.079.2-0.243,0.119-0.447-.233-1.376-0.736-1.768-0.958a0.282,0.282,0,0,1-.184-0.31c0-.438,0-1.382,0-1.863C5.792,12.8,5.771,12.618,6.056,12.781Z"/>
    <path id="Rectangle_1_copy_4" data-name="Rectangle 1 copy 4" class="cls-5" d="M6.216,16.431c0.38,0.231,1.143.7,1.535,0.93a0.392,0.392,0,0,1,.237.423c0,0.446,0,1.316,0,1.76,0,0.173-.1.212-0.235,0.131-0.381-.22-1.106-0.678-1.5-0.909A0.383,0.383,0,0,1,5.992,18.4c0-.424,0-1.4,0-1.846C5.991,16.44,6.05,16.33,6.216,16.431Z"/>
    <path id="Rectangle_1_copy_5" data-name="Rectangle 1 copy 5" class="cls-11" d="M8.379,11.344c0.407,0.234,1.354.788,1.786,1.04a0.354,0.354,0,0,1,.221.367v1.933c0,0.121-.025.2-0.156,0.125-0.392-.213-1.41-0.786-1.844-1.018a0.287,0.287,0,0,1-.2-0.292c0-.436,0-1.535,0-2.024C8.188,11.334,8.237,11.262,8.379,11.344Z"/>
    <path id="Rectangle_1_copy_6" data-name="Rectangle 1 copy 6" class="cls-5" d="M8.794,14.676c0.437,0.223,1.4.775,1.874,1.009a0.432,0.432,0,0,1,.25.438c0,0.475,0,1.389,0,1.864,0,0.222-.049.276-0.259,0.163-0.474-.257-1.472-0.8-1.886-1.019a0.308,0.308,0,0,1-.184-0.342c0-.468-0.012-1.491,0-1.97C8.592,14.633,8.608,14.581,8.794,14.676Z"/>
    <path id="Rectangle_1_copy_7" data-name="Rectangle 1 copy 7" class="cls-12" d="M9.12,18.09c0.487,0.277,1.513.921,1.988,1.205a0.407,0.407,0,0,1,.207.418c0,0.54-.011,1.724-0.011,2.247,0,0.147-.038.233-0.264,0.1-0.516-.294-1.643-0.945-2.077-1.2a0.337,0.337,0,0,1-.178-0.382c0-.566,0-1.737,0-2.256C8.787,18,8.948,17.992,9.12,18.09Z"/>
    <path class="cls-13" d="M11.826,12.752c0.471-.273,1.491-0.9,1.993-1.207,0.135-.084.289-0.113,0.295,0.221,0.009,0.539.041,1.548,0.058,2.111a0.515,0.515,0,0,1-.3.526c-0.493.282-1.454,0.844-1.967,1.111-0.23.119-.322,0.07-0.322-0.12V13.2A0.416,0.416,0,0,1,11.826,12.752Z"/>
    <path id="Rectangle_2_copy" data-name="Rectangle 2 copy" class="cls-14" d="M11.864,15.987c0.516-.315,1.6-0.986,2.081-1.28,0.084-.052.235-0.112,0.235,0.13v2.38a0.414,0.414,0,0,1-.245.412c-0.478.259-1.507,0.862-2.037,1.147-0.3.16-.314,0.055-0.314-0.169,0-.572-0.013-1.7,0-2.2A0.445,0.445,0,0,1,11.864,15.987Z"/>
    <path id="Rectangle_2_copy_2" data-name="Rectangle 2 copy 2" class="cls-15" d="M11.882,19.237c0.487-.335,1.511-0.938,2.007-1.242,0.191-.117.29-0.118,0.29,0.108v2.372a0.4,0.4,0,0,1-.233.411c-0.456.252-1.457,0.828-2,1.128-0.237.131-.362,0.2-0.362-0.091V19.7A0.46,0.46,0,0,1,11.882,19.237Z"/>
    <path id="Rectangle_2_copy_3" data-name="Rectangle 2 copy 3" class="cls-14" d="M14.71,11.071c0.451-.288,1.393-0.85,1.91-1.154,0.261-.153.362-0.111,0.362,0.1,0,0.571.047,1.774,0.051,2.3a0.422,0.422,0,0,1-.253.4c-0.469.3-1.52,0.857-2.033,1.146-0.19.107-.3,0.069-0.3-0.162V11.5A0.451,0.451,0,0,1,14.71,11.071Z"/>
    <path id="Rectangle_2_copy_3-2" data-name="Rectangle 2 copy 3" class="cls-16" d="M14.646,14.373c0.443-.286,1.547-0.944,2.084-1.284,0.2-.13.313-0.115,0.313,0.094v2.423a0.348,0.348,0,0,1-.2.331l-2.119,1.2c-0.2.112-.281,0.122-0.281-0.106V14.692A0.341,0.341,0,0,1,14.646,14.373Z"/>
    <path id="Rectangle_2_copy_3-3" data-name="Rectangle 2 copy 3" class="cls-17" d="M14.649,17.632c0.471-.3,1.664-1.025,2.165-1.332,0.162-.1.228-0.039,0.228,0.1v2.493a0.322,0.322,0,0,1-.2.312c-0.483.275-1.691,0.972-2.186,1.233-0.132.07-.207,0.037-0.207-0.157V17.963A0.345,0.345,0,0,1,14.649,17.632Z"/>
    <path id="Rectangle_2_copy_4" data-name="Rectangle 2 copy 4" class="cls-18" d="M17.428,9.522c0.45-.286,1.625-0.994,2.121-1.285,0.105-.062.228-0.076,0.228,0.093,0,0.539.059,1.894,0.055,2.422a0.278,0.278,0,0,1-.194.328c-0.476.266-1.666,0.943-2.169,1.223-0.166.092-.227,0.071-0.227-0.142V9.829A0.294,0.294,0,0,1,17.428,9.522Z"/>
    <path id="Rectangle_2_copy_4-2" data-name="Rectangle 2 copy 4" class="cls-17" d="M17.491,12.744c0.456-.333,1.53-0.953,2.047-1.27,0.174-.107.3-0.11,0.3,0.136,0,0.525-.007,1.588,0,2.186a0.531,0.531,0,0,1-.243.569c-0.448.253-1.41,0.792-1.953,1.1-0.245.14-.395,0.246-0.4-0.168-0.007-.527,0-1.452,0-1.936A0.632,0.632,0,0,1,17.491,12.744Z"/>
    <path id="Rectangle_2_copy_4-3" data-name="Rectangle 2 copy 4" class="cls-16" d="M17.508,15.959c0.313-.2,1.57-0.931,2.112-1.265a0.147,0.147,0,0,1,.218.068v2.395a0.487,0.487,0,0,1-.186.437c-0.472.267-1.585,0.885-2.078,1.161a0.2,0.2,0,0,1-.336-0.122c0-.564,0-1.933,0-2.208A0.493,0.493,0,0,1,17.508,15.959Z"/>
  </g>
</svg>
