<svg width="128" height="128" viewBox="0 0 128 128" fill="none" xmlns="http://www.w3.org/2000/svg">
<path d="M124.149 64C125.724 64 127.007 62.7228 126.936 61.15C126.417 49.6894 122.776 38.5679 116.383 28.9991C109.46 18.6388 99.6208 10.5639 88.1091 5.79559C76.5973 1.02727 63.9301 -0.220342 51.7093 2.21053C39.4885 4.6414 28.263 10.6416 19.4523 19.4523C10.6416 28.263 4.6414 39.4885 2.21053 51.7093C-0.220342 63.9301 1.02727 76.5973 5.79559 88.1091C10.5639 99.6208 18.6388 109.46 28.9991 116.383C38.5679 122.776 49.6894 126.417 61.15 126.936C62.7228 127.007 64 125.724 64 124.149V124.149C64 122.575 62.7227 121.306 61.1503 121.228C50.8179 120.713 40.7978 117.409 32.1667 111.642C22.744 105.346 15.3999 96.3971 11.0631 85.9272C6.7263 75.4573 5.5916 63.9364 7.80247 52.8216C10.0133 41.7068 15.4705 31.4972 23.4838 23.4838C31.4972 15.4705 41.7068 10.0133 52.8216 7.80247C63.9364 5.5916 75.4573 6.7263 85.9272 11.0631C96.3971 15.3999 105.346 22.744 111.642 32.1667C117.409 40.7978 120.713 50.8179 121.228 61.1503C121.306 62.7227 122.575 64 124.149 64V64Z" fill="#3D5162"/>
<path fill-rule="evenodd" clip-rule="evenodd" d="M80.5399 95.3819C77.517 95.3819 75.0625 97.8354 75.0625 100.859C75.0625 103.882 77.516 106.336 80.5399 106.336C83.5628 106.336 86.0153 103.882 86.0153 100.859C86.0163 97.8354 83.5618 95.3819 80.5399 95.3819Z" fill="#3D5162"/>
<path fill-rule="evenodd" clip-rule="evenodd" d="M59.5595 95.3819C56.5365 95.3819 54.082 97.8354 54.082 100.859C54.0831 103.882 56.5355 106.336 59.5595 106.336C62.5834 106.336 65.0358 103.882 65.0358 100.859C65.0358 97.8354 62.5824 95.3819 59.5595 95.3819Z" fill="#3D5162"/>
<path d="M55.8239 86.4119L45.6641 54.2392L48.204 50.8526H101.543L96.4631 76.2521C93.1567 81.5423 90.4563 83.6617 87.1499 88.9519L55.8239 86.4119Z" fill="#3D5162" stroke="black" stroke-width="1.14945"/>
<path fill-rule="evenodd" clip-rule="evenodd" d="M101.749 46.8674H44.5334L42.9943 35.4392C42.7719 33.7837 41.8491 33.0729 40.2113 33.0729H28.9297C27.4156 33.0729 26.1914 34.3013 26.1914 35.8133C26.1914 37.3264 27.4156 38.5516 28.9297 38.5516L37.8606 38.5506L44.259 77.4896C45.3253 84.1915 46.8602 90.6823 55.5698 90.6823L85.6922 90.6813C94.5119 90.6813 95.4815 84.3868 97.0642 78.0539L103.784 51.1759C104.303 49.0975 104.431 46.8674 101.749 46.8674ZM96.2838 59.2703L85.6922 78.0539C84.1853 78.0539 56.2691 60.5017 56.2691 62.0086C56.2691 63.5144 57.5006 64.7479 59.0074 64.7479H94.9151L93.3522 71.0008H65.703C64.1972 71.0008 62.9658 72.2323 62.9658 73.7391V73.7412C62.9658 75.247 64.1972 76.4785 65.703 76.4785H91.9814L91.6915 77.6413C90.8259 81.1061 90.6284 85.2057 85.6922 85.2057C86.3126 88.9323 80.4774 85.2057 85.6922 85.2057L71.7725 52.344H98.0161L96.2838 59.2703Z" fill="#3D5162"/>
<mask id="mask0_662_912" style="mask-type:alpha" maskUnits="userSpaceOnUse" x="26" y="33" width="79" height="58">
<path d="M55.8239 86.412L45.6641 54.2393L48.204 50.8527H101.543L96.4631 76.2522C93.1567 81.5424 90.4563 83.6617 87.1499 88.9519L55.8239 86.412Z" fill="#053C48" stroke="black" stroke-width="1.14945"/>
<path fill-rule="evenodd" clip-rule="evenodd" d="M101.749 46.8674H44.5334L42.9943 35.4393C42.7719 33.7838 41.8491 33.073 40.2113 33.073H28.9297C27.4156 33.073 26.1914 34.3013 26.1914 35.8134C26.1914 37.3265 27.4156 38.5517 28.9297 38.5517L37.8606 38.5506L44.259 77.4897C45.3253 84.1915 46.8602 90.6824 55.5698 90.6824L85.6922 90.6814C94.5119 90.6814 95.4815 84.3869 97.0642 78.054L103.784 51.176C104.303 49.0975 104.431 46.8674 101.749 46.8674ZM96.2838 59.2703L85.6922 78.054C84.1853 78.054 56.2691 60.5018 56.2691 62.0086C56.2691 63.5145 57.5006 64.748 59.0074 64.748H94.9151L93.3522 71.0009H65.703C64.1972 71.0009 62.9658 72.2324 62.9658 73.7392V73.7413C62.9658 75.2471 64.1972 76.4785 65.703 76.4785H91.9814L91.6915 77.6414C90.8259 81.1061 90.6284 85.2058 85.6922 85.2058C86.3126 88.9324 80.4774 85.2058 85.6922 85.2058L71.7725 52.344H98.0161L96.2838 59.2703Z" fill="#053C48"/>
</mask>
<g mask="url(#mask0_662_912)">
</g>
<g clip-path="url(#clip0_662_912)">
<path d="M68.8021 55.5883C68.2926 55.8393 68.2695 55.976 68.2695 58.4403C68.2695 60.1591 68.2922 60.6839 68.376 60.8895C68.5738 61.361 69.1213 61.5662 69.5853 61.3457C70.1254 61.0872 70.1254 61.0947 70.1101 58.4709C70.0948 55.8698 70.0796 55.8013 69.6081 55.573C69.2814 55.421 69.1291 55.421 68.8021 55.5883Z" fill="white"/>
<path d="M63.0219 57.9378C62.7328 58.0443 62.4896 58.2954 62.4211 58.5464C62.2691 59.094 62.3372 59.1853 64.0034 60.8742C64.8632 61.7492 65.6618 62.5099 65.7758 62.5706C66.5744 62.9889 67.4416 62.1143 67.0233 61.3231C66.8561 61.0113 63.8511 58.0521 63.6078 57.9605C63.3795 57.8767 63.2044 57.8692 63.0219 57.9378Z" fill="white"/>
<path d="M74.7738 57.9914C74.652 58.0525 73.8153 58.828 72.9329 59.7257L71.3125 61.3536V61.7566C71.3125 62.099 71.343 62.1902 71.533 62.3727C71.6548 62.4946 71.8374 62.6164 71.9513 62.6465C72.4457 62.7683 72.5753 62.6771 74.3402 60.9043L76.0291 59.208V58.8582C76.0291 58.4473 75.8239 58.1508 75.451 57.991C75.1392 57.8621 75.0632 57.8621 74.7738 57.9914Z" fill="white"/>
<path d="M68.3073 62.7749C67.9116 62.9652 67.5313 63.3303 67.3029 63.7639C67.1736 63.9923 67.1658 64.5172 67.1431 71.874L67.1278 79.7483L65.812 78.4395C64.2522 76.895 63.9557 76.7125 63.0199 76.7199C62.3504 76.7199 61.909 76.8872 61.4221 77.3286C60.7146 77.9679 60.471 79.0483 60.8134 79.9837C60.9732 80.4095 61.1557 80.6151 63.3544 82.8366C64.6631 84.1527 65.9562 85.5069 66.2304 85.8418C67.4553 87.333 68.7334 89.2579 69.7225 91.0684L70.202 91.9662H75.771H81.3396L81.8343 90.8025C82.7321 88.6645 83.3789 86.6714 83.7287 84.9518C83.9038 84.1073 83.9038 83.9933 83.9038 79.3753C83.9038 74.7269 83.9038 74.6509 83.7439 74.3085C83.3938 73.5631 82.7854 73.1596 81.9029 73.1142C81.4234 73.0836 81.302 73.1063 80.9365 73.2893C80.4344 73.5329 80.0387 73.974 79.8562 74.4989L79.7191 74.8867L79.6811 73.8596C79.6431 72.9085 79.6278 72.802 79.4375 72.4749C78.5322 70.9456 76.303 71.136 75.6641 72.802L75.5042 73.2129V72.6727C75.489 71.3793 74.523 70.4435 73.2981 70.5273C73.0016 70.55 72.6667 70.6338 72.4841 70.7251C71.9439 70.9989 71.419 71.6989 71.3732 72.2011C71.3658 72.3002 71.3352 70.5273 71.3125 68.26L71.2745 64.1517L71.0461 63.6954C70.8636 63.3456 70.7116 63.1779 70.3692 62.9421C69.9583 62.653 69.8898 62.6378 69.3116 62.615C68.7863 62.5998 68.6269 62.6229 68.3073 62.7749Z" fill="white"/>
<path d="M60.4559 63.9327C59.9996 64.1304 59.794 64.6779 60.0149 65.1419C60.2506 65.6362 60.3113 65.644 62.905 65.644C64.7913 65.644 65.2703 65.6213 65.4453 65.53C65.6584 65.4235 65.9094 65.0127 65.9094 64.777C65.9094 64.5107 65.6811 64.123 65.4379 63.9706C65.2021 63.8261 65.0651 63.8187 62.9433 63.8187C61.2089 63.8261 60.6462 63.8489 60.4559 63.9327Z" fill="white"/>
<path d="M73.0877 63.8945C72.6162 64.0849 72.3958 64.7161 72.639 65.1876C72.8747 65.6439 72.8598 65.6439 75.5141 65.6439H77.9405L78.199 65.3854C78.412 65.1724 78.4575 65.0658 78.4575 64.8148C78.4575 64.3888 78.2902 64.0923 77.9707 63.94C77.7502 63.8335 77.3927 63.8182 75.4761 63.826C74.2516 63.826 73.179 63.8566 73.0877 63.8945Z" fill="white"/>
</g>
<defs>
<clipPath id="clip0_662_912">
<rect width="37.2513" height="35.5581" fill="white" transform="translate(53.2852 55.086)"/>
</clipPath>
</defs>
</svg>
